<?xml version="1.0" encoding="UTF-8" standalone="no"?><!DOCTYPE svg PUBLIC "-//W3C//DTD SVG 1.1//EN" "http://www.w3.org/Graphics/SVG/1.1/DTD/svg11.dtd"><!-- Generated by graphviz version 2.40.1 (20161225.0304)
 --><!-- Title: %0 Pages: 1 --><svg xmlns="http://www.w3.org/2000/svg" xmlns:xlink="http://www.w3.org/1999/xlink" width="994pt" height="927pt" viewBox="0.00 0.00 994.06 927.09">
<g id="graph0" class="graph" transform="scale(1 1) rotate(0) translate(4 923.0939)">
<title>%0</title>
<polygon fill="#ffffff" stroke="transparent" points="-4,4 -4,-923.0939 990.0632,-923.0939 990.0632,4 -4,4"/>
<g id="clust1" class="cluster">
<title>cluster_Direct</title>
<polygon fill="none" stroke="#000000" points="863,-700.2626 863,-757.8626 959,-757.8626 959,-700.2626 863,-700.2626"/>
</g>
<g id="clust2" class="cluster">
<title>cluster_IME</title>
<polygon fill="none" stroke="#000000" points="8,-8 8,-911.0939 855,-911.0939 855,-8 8,-8"/>
<text text-anchor="middle" x="431.5" y="-894.4939" font-family="Times,serif" font-size="14.00" fill="#000000">IME Activated</text>
</g>
<!-- D -->
<g id="node1" class="node">
<title>D</title>
<text text-anchor="middle" x="911" y="-733.2626" font-family="Times,serif" font-size="14.00" fill="#000000">直接入力</text>
<text text-anchor="middle" x="911" y="-716.4626" font-family="Times,serif" font-size="14.00" fill="#000000">DirectInput</text>
</g>
<!-- P -->
<g id="node3" class="node">
<title>P</title>
<ellipse fill="none" stroke="#000000" cx="450" cy="-626.0469" rx="73.4077" ry="29.3315"/>
<text text-anchor="middle" x="450" y="-630.2469" font-family="Times,serif" font-size="14.00" fill="#000000">入力文字なし</text>
<text text-anchor="middle" x="450" y="-613.4469" font-family="Times,serif" font-size="14.00" fill="#000000">Precomposition</text>
</g>
<!-- D&#45;&gt;P -->
<g id="edge1" class="edge">
<title>D-&gt;P</title>
<path fill="none" stroke="#000000" d="M877.3392,-708.3613C871.3825,-705.3004 865.1236,-702.447 859,-700.2626 749.5954,-661.2359 616.0819,-641.9461 532.0249,-633.0021"/>
<polygon fill="#000000" stroke="#000000" points="532.3326,-629.5153 522.0242,-631.9621 531.6084,-636.4778 532.3326,-629.5153"/>
<text text-anchor="middle" x="848.3822" y="-677.6626" font-family="Times,serif" font-size="14.00" fill="#000000">IMEOn</text>
</g>
<!-- H -->
<g id="node5" class="node">
<title>H</title>
<ellipse fill="none" stroke="#000000" cx="601" cy="-248.4" rx="56.9107" ry="29.3315"/>
<text text-anchor="middle" x="601" y="-252.6" font-family="Times,serif" font-size="14.00" fill="#000000">変換中</text>
<text text-anchor="middle" x="601" y="-235.8" font-family="Times,serif" font-size="14.00" fill="#000000">Conversion</text>
</g>
<!-- D&#45;&gt;H -->
<g id="edge2" class="edge">
<title>D-&gt;H</title>
<path fill="none" stroke="#000000" d="M905.2056,-708.3342C899.9436,-687.6621 893,-654.9144 893,-626.0469 893,-626.0469 893,-626.0469 893,-352.2 893,-304.3284 751.9026,-272.8539 665.8708,-258.1121"/>
<polygon fill="#000000" stroke="#000000" points="666.3649,-254.6462 655.923,-256.4398 665.2043,-261.5493 666.3649,-254.6462"/>
<text text-anchor="middle" x="921.7658" y="-495.4313" font-family="Times,serif" font-size="14.00" fill="#000000">Reconvert</text>
</g>
<!-- A -->
<g id="node2" class="node">
<title>A</title>
</g>
<!-- A&#45;&gt;D -->
<g id="edge3" class="edge">
<title>A-&gt;D</title>
<path fill="none" stroke="#000000" d="M833.8209,-830.6808C848.4582,-811.4085 871.7789,-780.7033 888.9582,-758.084"/>
<polygon fill="#000000" stroke="#000000" points="891.9496,-759.9321 895.2107,-749.8516 886.3751,-755.6982 891.9496,-759.9321"/>
<text text-anchor="middle" x="932.0316" y="-788.8626" font-family="Times,serif" font-size="14.00" fill="#000000">(Del)</text>
<text text-anchor="middle" x="932.0316" y="-772.0626" font-family="Times,serif" font-size="14.00" fill="#000000">CancelAndIMEOff</text>
</g>
<!-- P&#45;&gt;P -->
<g id="edge6" class="edge">
<title>P-&gt;P</title>
<path fill="none" stroke="#000000" d="M520.9391,-634.0986C533.0577,-632.9984 541.4538,-630.3145 541.4538,-626.0469 541.4538,-623.113 537.4854,-620.9275 531.0671,-619.4906"/>
<polygon fill="#000000" stroke="#000000" points="531.3431,-615.9935 520.9391,-617.9952 530.3206,-622.9185 531.3431,-615.9935"/>
<text text-anchor="middle" x="544.9538" y="-621.8469" font-family="Times,serif" font-size="14.00" fill="#000000">*</text>
</g>
<!-- C -->
<g id="node4" class="node">
<title>C</title>
<ellipse fill="none" stroke="#000000" cx="383" cy="-443.8156" rx="62.4367" ry="29.3315"/>
<text text-anchor="middle" x="383" y="-448.0156" font-family="Times,serif" font-size="14.00" fill="#000000">変換前入力中</text>
<text text-anchor="middle" x="383" y="-431.2156" font-family="Times,serif" font-size="14.00" fill="#000000">Composition</text>
</g>
<!-- P&#45;&gt;C -->
<g id="edge4" class="edge">
<title>P-&gt;C</title>
<path fill="none" stroke="#000000" d="M384.0388,-612.8017C354.574,-603.2455 322.5897,-587.0082 305.0182,-559.6313 286.3683,-530.5742 312.6142,-497.9972 339.5692,-474.813"/>
<polygon fill="#000000" stroke="#000000" points="342.051,-477.3025 347.5298,-468.2342 337.5918,-471.9066 342.051,-477.3025"/>
<text text-anchor="middle" x="332.9909" y="-538.6313" font-family="Times,serif" font-size="14.00" fill="#000000">(文字入力)</text>
</g>
<!-- P&#45;&gt;C -->
<g id="edge5" class="edge">
<title>P-&gt;C</title>
<path fill="none" stroke="#000000" d="M422.344,-598.5848C412.707,-587.4076 402.8293,-573.7914 396.8934,-559.6313 386.8452,-535.6612 383.3801,-506.616 382.423,-483.6091"/>
<polygon fill="#000000" stroke="#000000" points="385.9187,-483.4032 382.145,-473.5032 378.9214,-483.5957 385.9187,-483.4032"/>
<text text-anchor="middle" x="411.5533" y="-538.6313" font-family="Times,serif" font-size="14.00" fill="#000000">Undo</text>
</g>
<!-- C&#45;&gt;P -->
<g id="edge9" class="edge">
<title>C-&gt;P</title>
<path fill="none" stroke="#000000" d="M430.3964,-463.2152C456.291,-476.6301 485.8896,-497.2818 500,-526.0313 510.5525,-547.5317 499.3208,-571.5382 484.8511,-590.6416"/>
<polygon fill="#000000" stroke="#000000" points="482.0606,-588.5263 478.5055,-598.507 487.5086,-592.9217 482.0606,-588.5263"/>
<text text-anchor="middle" x="523.4355" y="-547.0313" font-family="Times,serif" font-size="14.00" fill="#000000">(Del)</text>
<text text-anchor="middle" x="523.4355" y="-530.2313" font-family="Times,serif" font-size="14.00" fill="#000000">Cancel</text>
</g>
<!-- C&#45;&gt;P -->
<g id="edge10" class="edge">
<title>C-&gt;P</title>
<path fill="none" stroke="#000000" d="M401.129,-472.1558C410.3119,-487.579 420.9746,-507.2906 428,-526.0313 435.2666,-545.4154 440.4742,-567.857 443.9926,-586.5648"/>
<polygon fill="#000000" stroke="#000000" points="440.5691,-587.3035 445.7758,-596.5307 447.4596,-586.0705 440.5691,-587.3035"/>
<text text-anchor="middle" x="459.9495" y="-538.6313" font-family="Times,serif" font-size="14.00" fill="#000000">Commit</text>
</g>
<!-- C&#45;&gt;C -->
<g id="edge11" class="edge">
<title>C-&gt;C</title>
<path fill="none" stroke="#000000" d="M443.0091,-452.0848C454.952,-451.1541 463.4684,-448.3977 463.4684,-443.8156 463.4684,-440.6655 459.443,-438.3783 453.0464,-436.9539"/>
<polygon fill="#000000" stroke="#000000" points="453.3983,-433.4691 443.0091,-435.5465 452.4262,-440.4013 453.3983,-433.4691"/>
<text text-anchor="middle" x="466.9684" y="-439.6156" font-family="Times,serif" font-size="14.00" fill="#000000">*</text>
</g>
<!-- C&#45;&gt;H -->
<g id="edge7" class="edge">
<title>C-&gt;H</title>
<path fill="none" stroke="#000000" d="M424.8908,-421.7949C445.5165,-409.9889 470.1499,-394.3888 490,-377.4 499.2083,-369.5191 542.2164,-318.7414 571.9113,-283.2965"/>
<polygon fill="#000000" stroke="#000000" points="574.6664,-285.4579 578.4,-275.5427 569.2981,-280.9655 574.6664,-285.4579"/>
<text text-anchor="middle" x="555.5512" y="-348" font-family="Times,serif" font-size="14.00" fill="#000000">Convert</text>
</g>
<!-- Y -->
<g id="node6" class="node">
<title>Y</title>
<polygon fill="none" stroke="#000000" points="137,-290.1002 17.9464,-248.4 137,-206.6998 256.0536,-248.4 137,-290.1002"/>
<text text-anchor="middle" x="137" y="-252.6" font-family="Times,serif" font-size="14.00" fill="#000000">サジェスト選択中</text>
<text text-anchor="middle" x="137" y="-235.8" font-family="Times,serif" font-size="14.00" fill="#000000">Prediction</text>
</g>
<!-- C&#45;&gt;Y -->
<g id="edge8" class="edge">
<title>C-&gt;Y</title>
<path fill="none" stroke="#000000" d="M320.8001,-439.7443C238.2689,-432.8972 99.326,-415.8536 68.1374,-377.4 45.334,-349.2847 69.2989,-312.4671 95.0066,-285.3647"/>
<polygon fill="#000000" stroke="#000000" points="97.7431,-287.5741 102.2663,-277.9933 92.7556,-282.6623 97.7431,-287.5741"/>
<text text-anchor="middle" x="125.9313" y="-348" font-family="Times,serif" font-size="14.00" fill="#000000">PredictAndConvert  </text>
</g>
<!-- H&#45;&gt;P -->
<g id="edge16" class="edge">
<title>H-&gt;P</title>
<path fill="none" stroke="#000000" d="M621.0493,-276.0051C630.2993,-290.4361 640.2633,-308.8415 645,-327 650.6539,-348.6747 650.4703,-355.6782 645,-377.4 622.5423,-466.5762 608.4567,-491.2221 547,-559.6313 534.3408,-573.7226 518.1109,-586.3261 502.5634,-596.6685"/>
<polygon fill="#000000" stroke="#000000" points="500.5298,-593.8152 494.0231,-602.1766 504.3239,-599.6978 500.5298,-593.8152"/>
<text text-anchor="middle" x="656.9495" y="-439.6156" font-family="Times,serif" font-size="14.00" fill="#000000">Commit</text>
</g>
<!-- H&#45;&gt;C -->
<g id="edge17" class="edge">
<title>H-&gt;C</title>
<path fill="none" stroke="#000000" d="M604.5495,-277.7903C606.3303,-306.4887 604.3007,-349.7637 581,-377.4 563.7456,-397.865 500.525,-416.8173 450.1034,-429.1937"/>
<polygon fill="#000000" stroke="#000000" points="449.1082,-425.8332 440.2072,-431.5797 450.749,-432.6382 449.1082,-425.8332"/>
<text text-anchor="middle" x="621.4355" y="-348" font-family="Times,serif" font-size="14.00" fill="#000000">Cancel</text>
</g>
<!-- H&#45;&gt;C -->
<g id="edge18" class="edge">
<title>H-&gt;C</title>
<path fill="none" stroke="#000000" d="M549.3065,-261.0537C511.8214,-272.616 462.2473,-293.1777 430.0182,-327 418.8737,-338.6954 404.9261,-375.8209 395.1264,-405.116"/>
<polygon fill="#000000" stroke="#000000" points="391.7729,-404.1097 391.972,-414.7027 398.4223,-406.2976 391.7729,-404.1097"/>
<text text-anchor="middle" x="457.9909" y="-348" font-family="Times,serif" font-size="14.00" fill="#000000">(文字入力)</text>
</g>
<!-- H&#45;&gt;H -->
<g id="edge15" class="edge">
<title>H-&gt;H</title>
<path fill="none" stroke="#000000" d="M653.8817,-259.4516C666.5608,-258.5878 675.9553,-254.9039 675.9553,-248.4 675.9553,-243.8269 671.3108,-240.6481 664.1457,-238.8634"/>
<polygon fill="#000000" stroke="#000000" points="664.2857,-235.3462 653.8817,-237.3484 663.2635,-242.2712 664.2857,-235.3462"/>
<text text-anchor="middle" x="679.4553" y="-244.2" font-family="Times,serif" font-size="14.00" fill="#000000">*</text>
</g>
<!-- W -->
<g id="node8" class="node">
<title>W</title>
<polygon fill="none" stroke="#000000" stroke-dasharray="1,5" points="426,-99.3002 320.9732,-57.6 426,-15.8998 531.0268,-57.6 426,-99.3002"/>
<text text-anchor="middle" x="426" y="-61.8" font-family="Times,serif" font-size="14.00" fill="#000000">(変換語選択中)</text>
<text text-anchor="middle" x="426" y="-45" font-family="Times,serif" font-size="14.00" fill="#000000"> </text>
</g>
<!-- H&#45;&gt;W -->
<g id="edge14" class="edge">
<title>H-&gt;W</title>
<path fill="none" stroke="#000000" d="M602.0142,-218.8595C601.3757,-194.4257 596.899,-159.9946 579,-136.2 558.8329,-109.3901 526.9017,-90.974 497.4151,-78.7476"/>
<polygon fill="#000000" stroke="#000000" points="498.5314,-75.4252 487.9454,-74.9927 495.9512,-81.9323 498.5314,-75.4252"/>
<text text-anchor="middle" x="630.1571" y="-148.8" font-family="Times,serif" font-size="14.00" fill="#000000">ConvertNext</text>
</g>
<!-- Y&#45;&gt;P -->
<g id="edge19" class="edge">
<title>Y-&gt;P</title>
<path fill="none" stroke="#000000" d="M94.8479,-275.6781C78.5106,-288.912 61.8621,-306.4221 54,-327 46.0054,-347.9248 44.0974,-357.3078 54,-377.4 117.6675,-506.5799 283.2692,-576.1286 378.9489,-606.6567"/>
<polygon fill="#000000" stroke="#000000" points="377.9634,-610.0156 388.5524,-609.6647 380.0558,-603.3356 377.9634,-610.0156"/>
<text text-anchor="middle" x="150.9495" y="-439.6156" font-family="Times,serif" font-size="14.00" fill="#000000">Commit</text>
</g>
<!-- Y&#45;&gt;C -->
<g id="edge20" class="edge">
<title>Y-&gt;C</title>
<path fill="none" stroke="#000000" d="M179.8943,-275.2129C201.4858,-289.5117 227.5571,-308.0376 249,-327 271.6104,-346.9949 272.2303,-357.0462 294.5182,-377.4 308.2714,-389.9597 324.3008,-402.5338 338.9087,-413.3092"/>
<polygon fill="#000000" stroke="#000000" points="337.1732,-416.375 347.3174,-419.4321 341.2937,-410.7163 337.1732,-416.375"/>
<text text-anchor="middle" x="330.7409" y="-348" font-family="Times,serif" font-size="14.00" fill="#000000">  (文字入力)   </text>
</g>
<!-- Y&#45;&gt;C -->
<g id="edge21" class="edge">
<title>Y-&gt;C</title>
<path fill="none" stroke="#000000" d="M158.7763,-282.6935C167.0632,-296.2754 176.3454,-312.164 184,-327 195.2171,-348.7409 188.3653,-360.5792 206.129,-377.4 235.6274,-405.3326 277.9832,-421.7831 313.8505,-431.3236"/>
<polygon fill="#000000" stroke="#000000" points="313.2258,-434.7758 323.7788,-433.8351 314.9425,-427.9895 313.2258,-434.7758"/>
<text text-anchor="middle" x="225.4355" y="-348" font-family="Times,serif" font-size="14.00" fill="#000000">Cancel</text>
</g>
<!-- Y&#45;&gt;Y -->
<g id="edge22" class="edge">
<title>Y-&gt;Y</title>
<path fill="none" stroke="#000000" d="M224.1342,-259.6473C252.1066,-259.5319 274.2766,-255.7828 274.2766,-248.4 274.2766,-241.94 257.3027,-238.2622 234.3199,-237.3663"/>
<polygon fill="#000000" stroke="#000000" points="234.2054,-233.8633 224.1342,-237.1527 234.0586,-240.8617 234.2054,-233.8633"/>
<text text-anchor="middle" x="277.7766" y="-244.2" font-family="Times,serif" font-size="14.00" fill="#000000">*</text>
</g>
<!-- S -->
<g id="node7" class="node">
<title>S</title>
<ellipse fill="none" stroke="#000000" stroke-dasharray="1,5" cx="276" cy="-848.8782" rx="86.6288" ry="29.3315"/>
<text text-anchor="middle" x="276" y="-853.0782" font-family="Times,serif" font-size="14.00" fill="#000000">サジェスト表示中</text>
<text text-anchor="middle" x="276" y="-836.2782" font-family="Times,serif" font-size="14.00" fill="#000000">Suggestion</text>
</g>
<!-- S&#45;&gt;P -->
<g id="edge12" class="edge">
<title>S-&gt;P</title>
<path fill="none" stroke="#000000" stroke-dasharray="1,5" d="M298.3912,-820.2031C329.8648,-779.8968 387.1828,-706.4932 421.6107,-662.4034"/>
<polygon fill="#000000" stroke="#000000" points="424.573,-664.2966 427.969,-654.2607 419.0558,-659.9884 424.573,-664.2966"/>
<text text-anchor="middle" x="464.8955" y="-724.8626" font-family="Times,serif" font-size="14.00" fill="#000000">CommitFirstSuggestion    </text>
</g>
<!-- S&#45;&gt;C -->
<g id="edge13" class="edge">
<title>S-&gt;C</title>
<path fill="none" stroke="#000000" stroke-dasharray="5,2" d="M192.8171,-840.3849C125.2149,-828.337 41,-799.2441 41,-729.0626 41,-729.0626 41,-729.0626 41,-542.8313 41,-485.113 222.9983,-458.9128 321.4623,-448.9615"/>
</g>
<!-- W&#45;&gt;P -->
<g id="edge23" class="edge">
<title>W-&gt;P</title>
<path fill="none" stroke="#000000" d="M494.419,-72.2146C557.5602,-86.9823 645.1798,-111.1414 670,-136.2 751.6956,-218.6801 698,-279.8089 698,-395.9 698,-542.8313 698,-542.8313 698,-542.8313 698,-578.9407 602.3075,-602.299 529.8058,-614.8144"/>
<polygon fill="#000000" stroke="#000000" points="529.022,-611.397 519.7418,-616.5086 530.1841,-618.2999 529.022,-611.397"/>
<text text-anchor="middle" x="777.2791" y="-364.8" font-family="Times,serif" font-size="14.00" fill="#000000">Commit</text>
<text text-anchor="middle" x="777.2791" y="-348" font-family="Times,serif" font-size="14.00" fill="#000000">CommitOnlyFirstSegment</text>
<text text-anchor="middle" x="777.2791" y="-331.2" font-family="Times,serif" font-size="14.00" fill="#000000">(最後)</text>
</g>
<!-- W&#45;&gt;C -->
<g id="edge24" class="edge">
<title>W-&gt;C</title>
<path fill="none" stroke="#000000" d="M398.5385,-88.6617C375.4321,-117.1187 344.2742,-161.5799 332.129,-206.8 322.5375,-242.5122 318.2433,-255.7284 332.129,-290 340.7298,-311.2277 358.0622,-306.3644 368,-327 379.4633,-350.8033 383.1762,-380.3372 384.042,-403.7529"/>
<polygon fill="#000000" stroke="#000000" points="380.5487,-404.1138 384.2571,-414.0384 387.5472,-403.9674 380.5487,-404.1138"/>
<text text-anchor="middle" x="351.4355" y="-244.2" font-family="Times,serif" font-size="14.00" fill="#000000">Cancel</text>
</g>
<!-- W&#45;&gt;C -->
<g id="edge25" class="edge">
<title>W-&gt;C</title>
<path fill="none" stroke="#000000" d="M414.8678,-94.8828C412.9943,-102.2269 411.254,-109.9148 410,-117.2 388.8857,-239.8696 399.4166,-272.4511 388,-396.4 387.7675,-398.9243 387.5191,-401.5232 387.2618,-404.1428"/>
<polygon fill="#000000" stroke="#000000" points="383.7653,-403.9329 386.2413,-414.2343 390.7298,-404.6373 383.7653,-403.9329"/>
<text text-anchor="middle" x="425.9909" y="-244.2" font-family="Times,serif" font-size="14.00" fill="#000000">(文字入力)</text>
</g>
<!-- W&#45;&gt;H -->
<g id="edge26" class="edge">
<title>W-&gt;H</title>
<path fill="none" stroke="#000000" d="M416.3967,-95.6283C412.7633,-118.8561 412.3875,-148.1519 426.4418,-169.8 450.7168,-207.1913 497.4752,-226.9778 536.4922,-237.3428"/>
<polygon fill="#000000" stroke="#000000" points="535.6759,-240.7464 546.2266,-239.78 537.376,-233.956 535.6759,-240.7464"/>
<text text-anchor="middle" x="500.2791" y="-157.2" font-family="Times,serif" font-size="14.00" fill="#000000">CommitOnlyFirstSegment</text>
<text text-anchor="middle" x="500.2791" y="-140.4" font-family="Times,serif" font-size="14.00" fill="#000000">(残りあり)</text>
</g>
<!-- W&#45;&gt;W -->
<g id="edge27" class="edge">
<title>W-&gt;W</title>
<path fill="none" stroke="#000000" d="M502.8834,-68.85C528.5112,-68.85 549.0134,-65.1 549.0134,-57.6 549.0134,-51.1254 533.734,-47.4455 513.0681,-46.5603"/>
<polygon fill="#000000" stroke="#000000" points="512.9535,-43.0573 502.8834,-46.35 512.809,-50.0558 512.9535,-43.0573"/>
<text text-anchor="middle" x="552.5134" y="-53.4" font-family="Times,serif" font-size="14.00" fill="#000000">*</text>
</g>
</g>
</svg>