<svg xmlns="http://www.w3.org/2000/svg" viewBox="0 0 127.8 155.397"><g data-name="Layer 2"><g data-name="ART"><path d="M118.128 3.903L53.073 1.839c-2.232-.564-3.924 4.213 1.94 2.291L18.298 88.581a4.7 4.7 0 003.953 6.56l29.885 2.277a4.7 4.7 0 013.643 7.154l-34.657 45.34c-2.879 5.849 17.701 4.709 21.883 1.779l81.489-69.633a4.7 4.7 0 00-1.235-8.316l-32.235-2.003a4.7 4.7 0 01-2.245-7.356l31.905-53.034a4.7 4.7 0 00-2.556-7.446z" fill="#e8a91b"/><path d="M101.53 3.903L43.876 1.447a4.7 4.7 0 00-5.461 2.683L1.7 88.581a4.7 4.7 0 003.953 6.56l29.885 2.277a4.7 4.7 0 013.643 7.154l-18.76 41.514a4.7 4.7 0 006.698 6.317l80.777-70.345a4.7 4.7 0 00-1.235-8.316l-32.236-2.003a4.7 4.7 0 01-2.244-7.356l31.905-53.034a4.7 4.7 0 00-2.556-7.446z" fill="#fdbe2a"/><path d="M29.998 155.397c-3.473 0-8.069-.432-9.762-2.543a5.877 5.877 0 01-.968-7.376l18.728-41.443a1.253 1.253 0 01.078-.147 3.4 3.4 0 00-2.635-5.173L5.554 96.44a6.001 6.001 0 01-5.048-8.377l36.715-84.45a5.98 5.98 0 016.836-3.46L52.4.509a2.744 2.744 0 01.834.034l64.936 2.06a1.266 1.266 0 01.277.039 6.001 6.001 0 013.314 9.442L89.894 65.054a1.31 1.31 0 01-.089.129 3.399 3.399 0 001.479 5.268l32.056 1.992a1.27 1.27 0 01.325.062 6 6 0 011.63 10.58L43.85 152.68a1.207 1.207 0 01-.098.076c-2.227 1.56-7.628 2.433-11.994 2.606-.533.021-1.128.035-1.76.035zm10.337-50.218l-18.728 41.443a1.253 1.253 0 01-.078.148 3.299 3.299 0 00.567 4.263 1.25 1.25 0 01.156.173c1.594 2.153 15.902 2.212 19.958-.548l81.438-69.59c.032-.027.064-.052.099-.076A3.398 3.398 0 00123 75.03l-32.057-1.992a1.304 1.304 0 01-.323-.061 6.002 6.002 0 01-2.918-9.328l31.867-52.971a1.313 1.313 0 01.089-.129 3.399 3.399 0 00-1.723-5.35l-64.903-2.06a1.336 1.336 0 01-.278-.038 1.998 1.998 0 01-.351.012l-8.583-.366a1.272 1.272 0 01-.264-.038 3.39 3.39 0 00-3.948 1.94L2.893 89.099a3.398 3.398 0 002.859 4.744l29.884 2.276a6.002 6.002 0 014.699 9.06z" fill="#3e4147"/></g></g></svg>
